<?xml version="1.0" encoding="UTF-8"?>
<svg id="Layer_1" data-name="Layer 1" xmlns="http://www.w3.org/2000/svg" version="1.1" viewBox="0 0 1486 620">
  <defs>
    <style>
      .cls-1 {
        stroke-width: 0px;
      }

      .cls-1, .cls-2 {
        fill: #e6e9ed;
      }

      .cls-1, .cls-2, .cls-3, .cls-4, .cls-5 {
        stroke: #000;
        stroke-miterlimit: 5.2;
      }

      .cls-2, .cls-3, .cls-4, .cls-5 {
        stroke-width: 0px;
      }

      .cls-3 {
        fill: #168492;
      }

      .cls-4 {
        fill: #2db6c8;
      }

      .cls-5 {
        fill: #f5f7fa;
      }

      .cls-6 {
        fill: #fff;
        stroke-width: 0px;
      }
    </style>
  </defs>
  <g id="SVGRepo_iconCarrier" data-name="SVGRepo iconCarrier">
    <polygon class="cls-4" points="526.2 32.2 248.4 32.2 54 143.3 109.5 296.1 192.9 268.3 192.9 587.8 581.8 587.8 581.8 268.3 665.1 296.1 720.6 143.3 526.2 32.2"/>
    <path class="cls-3" d="M387.3,129.4c53.7,0,97.2-43.5,97.2-97.2h-194.4c0,53.7,43.5,97.2,97.2,97.2Z"/>
    <polygon class="cls-2" points="276.2 393 339.7 287.2 403.2 393 276.2 393"/>
    <polygon class="cls-5" points="329.1 393 413.8 244.9 498.4 393 329.1 393"/>
  </g>
  <g>
    <path class="cls-6" d="M665.7,370.5v95.2h-16.7v-95.2h-25.5v-15.7h67.7v15.7h-25.4Z"/>
    <path class="cls-6" d="M694.6,423.1h32.1v14.1h-32.1v-14.1Z"/>
    <path class="cls-6" d="M802.7,371.3l-13.6,8c-2.5-4.4-5-7.3-7.3-8.6-2.4-1.5-5.5-2.3-9.3-2.3s-8.5,1.3-11.6,4c-3.1,2.6-4.6,5.8-4.6,9.8s4,9.8,12.1,13.1l11.1,4.5c9,3.6,15.6,8.1,19.8,13.3s6.3,11.7,6.3,19.3-3.4,18.6-10.2,25.3c-6.9,6.7-15.4,10.1-25.5,10.1s-17.6-2.8-23.9-8.6c-6.2-5.7-10-13.7-11.6-24.1l17-3.7c.8,6.5,2.1,11,4,13.5,3.5,4.8,8.5,7.2,15.1,7.2s9.6-1.7,13-5.2c3.5-3.5,5.2-7.9,5.2-13.3s-.3-4.1-.9-5.9c-.6-1.8-1.5-3.4-2.8-5-1.3-1.5-2.9-2.9-4.9-4.2-2-1.3-4.4-2.6-7.2-3.8l-10.7-4.5c-15.2-6.4-22.8-15.8-22.8-28.2s3.2-15.3,9.6-20.9c6.4-5.7,14.3-8.5,23.8-8.5s22.8,6.2,30,18.7Z"/>
    <path class="cls-6" d="M822.7,344.3h16.2v57.2c5.7-5.2,12.1-7.8,19-7.8s14.2,2.6,19,7.7c4,4.5,6,11.6,6,21.3v42.9h-16.2v-41.4c0-5.6-1-9.7-3-12.2-2-2.5-5.2-3.8-9.6-3.8s-9.6,1.7-11.9,5.2c-2.3,3.5-3.4,9.6-3.4,18.3v33.8h-16.2v-121.4Z"/>
    <path class="cls-6" d="M900.9,366.6c0-2.8,1-5.3,3.1-7.3s4.5-3.1,7.4-3.1,5.4,1,7.5,3.1c2.1,2,3.1,4.5,3.1,7.4s-1,5.4-3.1,7.5c-2,2.1-4.5,3.1-7.4,3.1s-5.4-1-7.5-3.1c-2.1-2.1-3.1-4.6-3.1-7.5ZM919.5,395.7v70h-16.2v-70h16.2Z"/>
    <path class="cls-6" d="M940,395.7h16.2v6.3c3-3.1,5.6-5.2,7.9-6.4,2.3-1.2,5.1-1.8,8.3-1.8s8.7,1.4,13.4,4.2l-7.4,14.8c-3.1-2.2-6.1-3.3-9-3.3-8.8,0-13.2,6.7-13.2,20v36.3h-16.2v-70Z"/>
    <path class="cls-6" d="M1017.1,410.8v54.9h-16.2v-54.9h-6.9v-15.1h6.9v-25.7h16.2v25.7h12.6v15.1h-12.6Z"/>
    <path class="cls-1" d="M1151.9,371.3l-13.6,8c-2.5-4.4-5-7.3-7.3-8.6-2.4-1.5-5.5-2.3-9.3-2.3s-8.5,1.3-11.6,4c-3.1,2.6-4.6,5.8-4.6,9.8s4,9.8,12.1,13.1l11.1,4.5c9,3.6,15.6,8.1,19.8,13.3s6.3,11.7,6.3,19.3-3.4,18.6-10.2,25.3c-6.9,6.7-15.4,10.1-25.5,10.1s-17.6-2.8-23.9-8.6c-6.2-5.7-10-13.7-11.6-24.1l17-3.7c.8,6.5,2.1,11,4,13.5,3.5,4.8,8.5,7.2,15.1,7.2s9.6-1.7,13-5.2c3.5-3.5,5.2-7.9,5.2-13.3s-.3-4.1-.9-5.9c-.6-1.8-1.5-3.4-2.8-5-1.3-1.5-2.9-2.9-4.9-4.2-2-1.3-4.4-2.6-7.2-3.8l-10.7-4.5c-15.2-6.4-22.8-15.8-22.8-28.2s3.2-15.3,9.6-20.9c6.4-5.7,14.3-8.5,23.8-8.5s22.8,6.2,30,18.7Z"/>
    <path class="cls-1" d="M1171.9,344.3h16.2v57.2c5.7-5.2,12.1-7.8,19-7.8s14.2,2.6,19,7.7c4,4.5,6,11.6,6,21.3v42.9h-16.2v-41.4c0-5.6-1-9.7-3-12.2-2-2.5-5.2-3.8-9.6-3.8s-9.6,1.7-11.9,5.2c-2.3,3.5-3.4,9.6-3.4,18.3v33.8h-16.2v-121.4Z"/>
    <path class="cls-1" d="M1249.3,430.2c0-10.1,3.6-18.7,10.9-25.8,7.2-7.1,16-10.6,26.4-10.6s19.3,3.6,26.6,10.7c7.2,7.1,10.8,15.9,10.8,26.3s-3.6,19.3-10.9,26.4c-7.3,7-16.2,10.6-26.8,10.6s-19.3-3.6-26.4-10.8c-7.1-7.1-10.6-16-10.6-26.7ZM1265.8,430.5c0,7,1.9,12.5,5.6,16.6,3.8,4.1,8.9,6.2,15.2,6.2s11.4-2,15.2-6.1c3.8-4.1,5.7-9.5,5.7-16.3s-1.9-12.2-5.7-16.3c-3.8-4.1-8.9-6.2-15.2-6.2s-11.2,2.1-15,6.2c-3.8,4.1-5.7,9.4-5.7,16Z"/>
    <path class="cls-1" d="M1357.2,503.8h-16.2v-108.1h16.2v7.6c6.4-6.4,13.6-9.6,21.7-9.6s17.6,3.5,23.8,10.6c6.3,7,9.5,15.9,9.5,26.7s-3.1,19.2-9.4,26.2c-6.2,6.9-14.1,10.4-23.6,10.4s-15.5-3.3-22-9.8v45.9ZM1395.6,431.1c0-6.7-1.8-12.2-5.5-16.4-3.7-4.3-8.3-6.4-13.9-6.4s-10.8,2.1-14.4,6.2c-3.7,4.1-5.5,9.5-5.5,16.2s1.8,12,5.5,16.2c3.6,4.2,8.4,6.3,14.4,6.3s10.2-2.1,13.9-6.3c3.7-4.2,5.6-9.5,5.6-15.8Z"/>
    <path class="cls-6" d="M635,493.2v29.7c3.2-3.3,6.9-5,11-5s8.6,1.8,11.8,5.3c3.1,3.5,4.7,7.8,4.7,13s-1.6,9.8-4.7,13.3c-3.1,3.5-7.1,5.2-11.9,5.2s-7.6-1.6-10.8-4.7v3.7h-8.1v-60.5h8.1ZM654.1,536.5c0-3.3-.9-6.1-2.7-8.2-1.8-2.1-4.1-3.2-6.9-3.2s-5.4,1-7.2,3.1c-1.8,2.1-2.8,4.7-2.8,8s.9,6.1,2.7,8.1c1.8,2.1,4.2,3.1,7.2,3.1s5.1-1,7-3.1c1.9-2.1,2.8-4.7,2.8-7.9Z"/>
    <path class="cls-6" d="M680.6,547.2l-15.7-28.4h9.3l10.7,20.1,10-20.1h9.1l-27.8,53.9h-9.2l13.6-25.5Z"/>
    <path class="cls-6" d="M764.9,506.6l-6.8,4c-1.3-2.2-2.5-3.6-3.6-4.3-1.2-.8-2.7-1.1-4.6-1.1s-4.2.7-5.8,2c-1.5,1.3-2.3,2.9-2.3,4.9s2,4.9,6,6.5l5.5,2.3c4.5,1.8,7.8,4,9.9,6.6,2.1,2.6,3.1,5.8,3.1,9.6s-1.7,9.3-5.1,12.6c-3.4,3.3-7.7,5-12.7,5s-8.8-1.4-11.9-4.3c-3.1-2.8-5-6.8-5.8-12l8.5-1.9c.4,3.2,1.1,5.5,2,6.7,1.7,2.4,4.2,3.6,7.5,3.6s4.8-.9,6.5-2.6c1.7-1.7,2.6-4,2.6-6.6s-.2-2.1-.4-3c-.3-.9-.8-1.7-1.4-2.5-.6-.8-1.5-1.5-2.5-2.1-1-.7-2.2-1.3-3.6-1.9l-5.3-2.2c-7.6-3.2-11.4-7.9-11.4-14s1.6-7.6,4.8-10.4c3.2-2.8,7.1-4.2,11.9-4.2s11.4,3.1,14.9,9.3Z"/>
    <path class="cls-6" d="M800.6,518.8h8.1v34.9h-8.1v-3.7c-3.3,3.1-6.9,4.7-10.7,4.7s-8.8-1.7-12-5.2c-3.1-3.6-4.7-8-4.7-13.3s1.6-9.6,4.7-13.1c3.1-3.5,7-5.2,11.8-5.2s7.7,1.7,10.9,5v-4ZM781.4,536.2c0,3.3.9,6.1,2.7,8.2,1.8,2.1,4.2,3.2,6.9,3.2s5.4-1,7.2-3.1c1.8-2.1,2.8-4.8,2.8-8.1s-.9-6-2.8-8.1c-1.8-2.1-4.2-3.1-7.2-3.1s-5.1,1.1-7,3.2c-1.8,2.1-2.8,4.8-2.8,7.9Z"/>
    <path class="cls-6" d="M818.8,518.8h8.1v3.2c1.6-1.6,2.9-2.7,4-3.3,1.2-.6,2.6-.9,4.4-.9,3.9,0,7.1,1.7,9.3,5.2,2.5-3.4,6-5.2,10.3-5.2,7.9,0,11.8,4.8,11.8,14.3v21.6h-8.1v-19.4c0-3.3-.4-5.7-1.2-7.1-.8-1.4-2.2-2.1-4.1-2.1s-3.8.8-4.9,2.5c-1,1.7-1.5,4.4-1.5,8.1v18h-8.1v-19.3c0-6.2-1.8-9.3-5.4-9.3s-3.9.8-5,2.5c-1,1.7-1.6,4.4-1.6,8v18h-8.1v-34.9Z"/>
    <path class="cls-6" d="M884.9,518.8v20c0,5.8,2.3,8.7,6.8,8.7s6.8-2.9,6.8-8.7v-20h8.1v20.2c0,2.8-.3,5.2-1,7.2-.7,1.8-1.8,3.5-3.5,4.9-2.7,2.4-6.2,3.5-10.4,3.5s-7.6-1.2-10.4-3.5c-1.7-1.5-2.9-3.1-3.5-4.9-.7-1.6-1-4-1-7.2v-20.2h8.1Z"/>
    <path class="cls-6" d="M948.6,538.2h-25c.2,2.9,1.1,5.1,2.8,6.8,1.6,1.7,3.8,2.5,6.3,2.5s3.7-.5,5-1.4c1.3-1,2.8-2.7,4.4-5.3l6.8,3.8c-1.1,1.8-2.2,3.3-3.3,4.6-1.2,1.3-2.4,2.3-3.8,3.2-1.3.8-2.8,1.4-4.3,1.8s-3.2.6-5.1.6c-5.2,0-9.4-1.7-12.5-5-3.2-3.4-4.7-7.8-4.7-13.4s1.5-10,4.6-13.4c3.1-3.4,7.2-5.1,12.3-5.1s9.2,1.6,12.2,4.9c3,3.2,4.4,7.8,4.4,13.5v1.9ZM940.4,531.6c-1.1-4.3-3.8-6.4-8.1-6.4s-1.9.1-2.8.4c-.9.3-1.6.7-2.3,1.3-.7.6-1.3,1.2-1.8,2-.5.8-.9,1.7-1.1,2.7h16.2Z"/>
    <path class="cls-6" d="M965.5,493.2v60.5h-8.1v-60.5h8.1Z"/>
    <path class="cls-6" d="M996,530.2l17.1,23.6h-10.2l-15.8-22.6h-1.5v22.6h-8.3v-55.3h9.8c7.3,0,12.6,1.4,15.8,4.1,3.6,3.1,5.4,7.1,5.4,12.1s-1.1,7.3-3.4,10.1c-2.2,2.8-5.2,4.6-8.9,5.4ZM985.6,523.8h2.7c7.9,0,11.9-3,11.9-9.1s-3.8-8.5-11.5-8.5h-3v17.6Z"/>
    <path class="cls-6" d="M1053.6,552.9c0,1.6,0,3.1-.2,4.4s-.3,2.4-.4,3.3c-.6,2.6-1.7,4.9-3.4,6.8-3.2,3.6-7.5,5.4-13,5.4s-8.5-1.3-11.5-3.8c-3.1-2.6-4.9-6.2-5.4-10.7h8.1c.3,1.7.8,3,1.5,4,1.7,2.2,4.1,3.3,7.3,3.3,5.9,0,8.8-3.6,8.8-10.9v-4.9c-3.2,3.3-6.9,4.9-11.1,4.9s-8.6-1.7-11.7-5.2c-3.1-3.5-4.6-7.8-4.6-13.1s1.4-9.4,4.3-13c3.1-3.8,7.1-5.7,12.1-5.7s8,1.6,11,4.9v-3.9h8.1v34.1ZM1045.9,536.3c0-3.4-.9-6.1-2.7-8.1-1.8-2.1-4.2-3.1-7.1-3.1s-5.5,1.1-7.2,3.4c-1.6,2-2.4,4.7-2.4,7.9s.8,5.8,2.4,7.8c1.7,2.2,4.2,3.3,7.2,3.3s5.5-1.1,7.3-3.4c1.6-2,2.5-4.6,2.5-7.8Z"/>
    <path class="cls-6" d="M1071.9,518.8v20c0,5.8,2.3,8.7,6.8,8.7s6.8-2.9,6.8-8.7v-20h8.1v20.2c0,2.8-.3,5.2-1,7.2-.7,1.8-1.8,3.5-3.5,4.9-2.7,2.4-6.2,3.5-10.4,3.5s-7.6-1.2-10.4-3.5c-1.7-1.5-2.9-3.1-3.5-4.9-.7-1.6-1-4-1-7.2v-20.2h8.1Z"/>
    <path class="cls-6" d="M1135.6,538.2h-25c.2,2.9,1.1,5.1,2.8,6.8,1.6,1.7,3.8,2.5,6.3,2.5s3.7-.5,5-1.4c1.3-1,2.8-2.7,4.4-5.3l6.8,3.8c-1.1,1.8-2.2,3.3-3.3,4.6-1.2,1.3-2.4,2.3-3.8,3.2-1.3.8-2.8,1.4-4.3,1.8s-3.2.6-5.1.6c-5.2,0-9.4-1.7-12.5-5-3.2-3.4-4.7-7.8-4.7-13.4s1.5-10,4.6-13.4c3.1-3.4,7.2-5.1,12.3-5.1s9.2,1.6,12.2,4.9c3,3.2,4.4,7.8,4.4,13.5v1.9ZM1127.3,531.6c-1.1-4.3-3.8-6.4-8.1-6.4s-1.9.1-2.8.4c-.9.3-1.6.7-2.3,1.3-.7.6-1.3,1.2-1.8,2-.5.8-.9,1.7-1.1,2.7h16.2Z"/>
    <path class="cls-6" d="M1155.9,546.1h20.7v7.6h-36.7l22.6-27.4h-17.8v-7.5h33.7l-22.6,27.3Z"/>
    <path class="cls-6" d="M1217.1,506.6l-6.8,4c-1.3-2.2-2.5-3.6-3.6-4.3-1.2-.8-2.7-1.1-4.6-1.1s-4.2.7-5.8,2c-1.5,1.3-2.3,2.9-2.3,4.9s2,4.9,6,6.5l5.5,2.3c4.5,1.8,7.8,4,9.9,6.6,2.1,2.6,3.1,5.8,3.1,9.6s-1.7,9.3-5.1,12.6c-3.4,3.3-7.7,5-12.7,5s-8.8-1.4-11.9-4.3c-3.1-2.8-5-6.8-5.8-12l8.5-1.9c.4,3.2,1.1,5.5,2,6.7,1.7,2.4,4.2,3.6,7.5,3.6s4.8-.9,6.5-2.6c1.7-1.7,2.6-4,2.6-6.6s-.2-2.1-.4-3c-.3-.9-.8-1.7-1.4-2.5-.6-.8-1.5-1.5-2.5-2.1-1-.7-2.2-1.3-3.6-1.9l-5.3-2.2c-7.6-3.2-11.4-7.9-11.4-14s1.6-7.6,4.8-10.4c3.2-2.8,7.1-4.2,11.9-4.2s11.4,3.1,14.9,9.3Z"/>
    <path class="cls-6" d="M1225.8,504.3c0-1.4.5-2.6,1.5-3.7s2.3-1.5,3.7-1.5,2.7.5,3.7,1.5c1,1,1.5,2.2,1.5,3.7s-.5,2.7-1.5,3.7c-1,1-2.2,1.5-3.7,1.5s-2.7-.5-3.7-1.5c-1-1-1.5-2.3-1.5-3.8ZM1235.1,518.8v34.9h-8.1v-34.9h8.1Z"/>
    <path class="cls-6" d="M1249.6,518.8l9,19.6,9-19.6h9.1l-18.1,37.3-18-37.3h9Z"/>
    <path class="cls-6" d="M1312.7,538.2h-25c.2,2.9,1.1,5.1,2.8,6.8,1.6,1.7,3.8,2.5,6.3,2.5s3.7-.5,5-1.4c1.3-1,2.8-2.7,4.4-5.3l6.8,3.8c-1.1,1.8-2.2,3.3-3.3,4.6-1.2,1.3-2.4,2.3-3.8,3.2-1.3.8-2.8,1.4-4.3,1.8s-3.2.6-5.1.6c-5.2,0-9.4-1.7-12.5-5-3.2-3.4-4.7-7.8-4.7-13.4s1.5-10,4.6-13.4c3.1-3.4,7.2-5.1,12.3-5.1s9.2,1.6,12.2,4.9c3,3.2,4.4,7.8,4.4,13.5v1.9ZM1304.4,531.6c-1.1-4.3-3.8-6.4-8.1-6.4s-1.9.1-2.8.4c-.9.3-1.6.7-2.3,1.3-.7.6-1.3,1.2-1.8,2-.5.8-.9,1.7-1.1,2.7h16.2Z"/>
    <path class="cls-6" d="M1321.5,518.8h8.1v3.1c1.5-1.6,2.8-2.6,3.9-3.2,1.2-.6,2.6-.9,4.2-.9s4.3.7,6.7,2.1l-3.7,7.4c-1.5-1.1-3-1.6-4.5-1.6-4.4,0-6.6,3.3-6.6,10v18.1h-8.1v-34.9Z"/>
    <path class="cls-6" d="M1348.8,504.3c0-1.4.5-2.6,1.5-3.7s2.3-1.5,3.7-1.5,2.7.5,3.7,1.5c1,1,1.5,2.2,1.5,3.7s-.5,2.7-1.5,3.7c-1,1-2.2,1.5-3.7,1.5s-2.7-.5-3.7-1.5c-1-1-1.5-2.3-1.5-3.8ZM1358.1,518.8v34.9h-8.1v-34.9h8.1Z"/>
    <path class="cls-6" d="M1366.7,536c0-5,1.8-9.3,5.4-12.9,3.6-3.5,8-5.3,13.2-5.3s9.6,1.8,13.3,5.3c3.6,3.6,5.4,7.9,5.4,13.1s-1.8,9.6-5.4,13.1c-3.6,3.5-8.1,5.3-13.4,5.3s-9.6-1.8-13.1-5.4c-3.5-3.5-5.3-8-5.3-13.3ZM1374.9,536.2c0,3.5.9,6.2,2.8,8.3,1.9,2.1,4.4,3.1,7.6,3.1s5.7-1,7.6-3,2.8-4.7,2.8-8.1-.9-6.1-2.8-8.1c-1.9-2.1-4.4-3.1-7.6-3.1s-5.6,1-7.5,3.1c-1.9,2.1-2.9,4.7-2.9,8Z"/>
  </g>
</svg>